# xmcd CD database file
#
# Track frame offsets:
#	150
#	12995
#	27283
#	57075
#	87440
#	100218
#	117613
#	127103
#	143075
#	173523
#	187263
#	196525
#	201603
#	210910
#	219880
#
# Disc length: 3065 seconds
#
# Revision: 1
# Processed by: cddbd v1.5.1PL0 Copyright (c) Steve Scherf et al.
# Submitted via: CDex 1.51
#
DISCID=d60bf70f
DTITLE=鞠川 雪映 - NOSTALGIA 1907
DYEAR=1991
DGENRE=Soundtrack
TTITLE0=映像。
TTITLE1=予感。
TTITLE2=彼の日々、
TTITLE3=でも、わたし、
TTITLE4=くつをはく。
TTITLE5=花を買うように、
TTITLE6=信じない、
TTITLE7=彼がドアを閉めた、
TTITLE8=気弱いんじゃない。
TTITLE9=週末の午後。
TTITLE10=ここで、
TTITLE11=きんもくせい。
TTITLE12=そう、
TTITLE13=だから。
TTITLE14=そして、
EXTD=YEAR: 1991
EXTT0=
EXTT1=
EXTT2=
EXTT3=
EXTT4=
EXTT5=
EXTT6=
EXTT7=
EXTT8=
EXTT9=
EXTT10=
EXTT11=
EXTT12=
EXTT13=
EXTT14=
PLAYORDER=
